<?xml version="1.0" encoding="iso-8859-1"?>
<!-- Generator: Adobe Illustrator 19.0.0, SVG Export Plug-In . SVG Version: 6.00 Build 0)  -->
<svg version="1.1" id="Capa_1" xmlns="http://www.w3.org/2000/svg" xmlns:xlink="http://www.w3.org/1999/xlink" x="0px" y="0px"
	 viewBox="0 0 512 512" style="enable-background:new 0 0 512 512;" xml:space="preserve">
<path style="fill:#032E68;" d="M331,467c0,8.291-6.709,15-15,15H196c-8.291,0-15-6.709-15-15v-90c0-8.291,6.709-15,15-15h120
	c8.291,0,15,6.709,15,15V467z"/>
<g>
	<path style="fill:#0A4EAF;" d="M512,347c0,24.814-20.186,45-45,45H45c-24.814,0-45-20.186-45-45V45C0,20.186,20.186,0,45,0h422
		c24.814,0,45,20.186,45,45V347z"/>
	<path style="fill:#0A4EAF;" d="M391,497c0,8.291-6.709,15-15,15H136c-8.291,0-15-6.709-15-15l0,0v-15c0-16.569,13.431-30,30-30h210
		c16.569,0,30,13.431,30,30V497L391,497z"/>
</g>
<path style="fill:#001D56;" d="M316,362h-60v120h60c8.291,0,15-6.709,15-15v-90C331,368.709,324.291,362,316,362z"/>
<g>
	<path style="fill:#08469C;" d="M467,0H256v392h211c24.814,0,45-20.186,45-45V45C512,20.186,491.814,0,467,0z"/>
	<path style="fill:#08469C;" d="M361,452H256v60h120c8.291,0,15-6.709,15-15v-15C391,465.431,377.569,452,361,452z"/>
</g>
<path style="fill:#E6EEFF;" d="M45,362c-8.276,0-15-6.724-15-15V45c0-8.276,6.724-15,15-15h422c8.276,0,15,6.724,15,15v302
	c0,8.276-6.724,15-15,15H45z"/>
<path style="fill:#DAE2F2;" d="M467,30H256v332h211c8.276,0,15-6.724,15-15V45C482,36.724,475.276,30,467,30z"/>
<path style="fill:#FCBF29;" d="M411.566,70.898C360.37,50.449,301.703,59.077,258.549,93.574L256,95.612l-2.549-2.038
	C210.37,59.106,151.718,50.405,100.434,70.898C94.735,73.184,91,78.691,91,84.829V287c0,4.98,2.476,9.624,6.592,12.422
	c4.116,2.754,9.36,3.325,13.975,1.509c41.279-16.479,88.433-9.521,123.135,18.252C240.981,324.205,248.467,332,256,332
	c7.225,0,14.909-7.707,21.299-12.817c34.688-27.773,81.87-34.761,123.135-18.252c4.614,1.86,9.858,1.274,13.975-1.509
	C418.524,296.624,421,291.98,421,287V84.829C421,78.691,417.265,73.184,411.566,70.898z"/>
<path style="fill:#FE9923;" d="M277.299,319.183c34.688-27.773,81.87-34.761,123.135-18.252c4.614,1.86,9.858,1.274,13.975-1.509
	C418.524,296.624,421,291.98,421,287V84.829c0-6.138-3.735-11.646-9.434-13.931C360.37,50.449,301.703,59.077,258.549,93.574
	L256,95.612V332C263.225,332,270.908,324.293,277.299,319.183z"/>
<g>
</g>
<g>
</g>
<g>
</g>
<g>
</g>
<g>
</g>
<g>
</g>
<g>
</g>
<g>
</g>
<g>
</g>
<g>
</g>
<g>
</g>
<g>
</g>
<g>
</g>
<g>
</g>
<g>
</g>
</svg>
