<?xml version="1.0" encoding="UTF-8" standalone="no"?>
<!-- Created with Inkscape (http://www.inkscape.org/) -->

<svg
   xmlns:dc="http://purl.org/dc/elements/1.1/"
   xmlns:cc="http://creativecommons.org/ns#"
   xmlns:rdf="http://www.w3.org/1999/02/22-rdf-syntax-ns#"
   xmlns:svg="http://www.w3.org/2000/svg"
   xmlns="http://www.w3.org/2000/svg"
   xmlns:sodipodi="http://sodipodi.sourceforge.net/DTD/sodipodi-0.dtd"
   xmlns:inkscape="http://www.inkscape.org/namespaces/inkscape"
   width="96"
   height="96"
   viewBox="0 0 25.399999 25.400001"
   version="1.1"
   id="svg8"
   inkscape:version="0.92.3 (2405546, 2018-03-11)"
   sodipodi:docname="single-quotes-open-close-german.svg"
   inkscape:export-filename="C:\Projects\epub-editor\src\main\resources\icons\single-quotes-open-close-german.png"
   inkscape:export-xdpi="96"
   inkscape:export-ydpi="96">
  <defs
     id="defs2" />
  <sodipodi:namedview
     id="base"
     pagecolor="#ffffff"
     bordercolor="#666666"
     borderopacity="1.0"
     inkscape:pageopacity="0.0"
     inkscape:pageshadow="2"
     inkscape:zoom="5.6"
     inkscape:cx="55.255898"
     inkscape:cy="48.078231"
     inkscape:document-units="mm"
     inkscape:current-layer="layer1"
     showgrid="false"
     inkscape:window-width="1920"
     inkscape:window-height="1017"
     inkscape:window-x="-8"
     inkscape:window-y="-8"
     inkscape:window-maximized="1"
     units="px" />
  <metadata
     id="metadata5">
    <rdf:RDF>
      <cc:Work
         rdf:about="">
        <dc:format>image/svg+xml</dc:format>
        <dc:type
           rdf:resource="http://purl.org/dc/dcmitype/StillImage" />
        <dc:title />
      </cc:Work>
    </rdf:RDF>
  </metadata>
  <g
     inkscape:label="Ebene 1"
     inkscape:groupmode="layer"
     id="layer1"
     transform="translate(0,-271.59998)">
    <g
       id="g1377"
       transform="matrix(1.2658865,0,0,1.2658865,-4.0467032,-75.599364)">
      <path
         sodipodi:nodetypes="ccccccccccc"
         inkscape:connector-curvature="0"
         id="path826-7"
         d="m 9.2143968,290.49589 0.035509,1.63333 c 1.4635292,-0.12761 2.8117742,-1.09554 3.0891212,-2.50325 v -4.03006 c -0.0436,-0.19913 -0.199392,-0.46724 -0.461594,-0.4971 l -3.1068726,0.0355 c -0.1301928,0.0742 -0.2603861,0.11731 -0.3905788,0.37283 l 0.017754,3.2134 c 0.08542,0.13103 0.1413943,0.26941 0.4083326,0.35507 l 1.7931088,-0.0355 c 0.167832,1.07769 -0.7515666,1.24002 -1.3847799,1.4558 z"
         style="fill:#9c27b0;fill-opacity:1;stroke:#9c27b0;stroke-width:0.14060105px;stroke-linecap:butt;stroke-linejoin:miter;stroke-opacity:1" />
      <path
         sodipodi:nodetypes="ccccccccccc"
         inkscape:connector-curvature="0"
         id="path826-7-3"
         d="m 17.230289,278.11653 -0.04,-1.63322 c -1.463173,0.13163 -2.808749,1.10327 -3.082222,2.51174 l 0.01109,4.03004 c 0.04415,0.19901 0.200677,0.46669 0.46296,0.49583 l 3.106763,-0.044 c 0.129988,-0.0745 0.260062,-0.11802 0.389552,-0.3739 l -0.02659,-3.21334 c -0.08578,-0.13079 -0.142134,-0.26902 -0.409308,-0.35394 l -1.793005,0.0404 c -0.170796,-1.07722 0.748153,-1.24208 1.38077,-1.45961 z"
         style="fill:#9c27b0;fill-opacity:1;stroke:#9c27b0;stroke-width:0.14060105px;stroke-linecap:butt;stroke-linejoin:miter;stroke-opacity:1" />
    </g>
  </g>
</svg>
